<svg width="275" height="190" viewBox="0 0 275 190" fill="none" xmlns="http://www.w3.org/2000/svg">
<path d="M80 43H129V117C129 118.657 127.657 120 126 120H83C81.3431 120 80 118.657 80 117V43Z" fill="white"/>
<path d="M120.615 0.916665C121.181 0.33087 121.96 0 122.774 0H163.005C165.642 0 166.996 3.15743 165.179 5.06782L129 43H80L120.615 0.916665Z" fill="white"/>
<path d="M159 71C159 68.7909 160.791 67 163 67H189C191.209 67 193 68.7909 193 71V116C193 118.209 191.209 120 189 120H163C160.791 120 159 118.209 159 116V71Z" fill="white"/>
<path d="M41.104 150.496V184H34.384V169.744H20.032V184H13.312V150.496H20.032V164.272H34.384V150.496H41.104ZM59.5263 184.432C56.9663 184.432 54.6623 183.872 52.6143 182.752C50.5663 181.6 48.9503 179.984 47.7663 177.904C46.6143 175.824 46.0383 173.424 46.0383 170.704C46.0383 167.984 46.6303 165.584 47.8143 163.504C49.0303 161.424 50.6783 159.824 52.7583 158.704C54.8383 157.552 57.1583 156.976 59.7183 156.976C62.2783 156.976 64.5983 157.552 66.6783 158.704C68.7583 159.824 70.3903 161.424 71.5743 163.504C72.7903 165.584 73.3983 167.984 73.3983 170.704C73.3983 173.424 72.7743 175.824 71.5262 177.904C70.3103 179.984 68.6463 181.6 66.5343 182.752C64.4543 183.872 62.1183 184.432 59.5263 184.432ZM59.5263 178.576C60.7423 178.576 61.8783 178.288 62.9343 177.712C64.0223 177.104 64.8863 176.208 65.5263 175.024C66.1663 173.84 66.4863 172.4 66.4863 170.704C66.4863 168.176 65.8143 166.24 64.4703 164.896C63.1583 163.52 61.5423 162.832 59.6223 162.832C57.7023 162.832 56.0863 163.52 54.7743 164.896C53.4943 166.24 52.8543 168.176 52.8543 170.704C52.8543 173.232 53.4783 175.184 54.7263 176.56C56.0063 177.904 57.6063 178.576 59.5263 178.576ZM111.352 157.024C114.616 157.024 117.24 158.032 119.224 160.048C121.24 162.032 122.248 164.816 122.248 168.4V184H115.528V169.312C115.528 167.232 115 165.648 113.944 164.56C112.888 163.44 111.448 162.88 109.624 162.88C107.8 162.88 106.344 163.44 105.256 164.56C104.2 165.648 103.672 167.232 103.672 169.312V184H96.9516V169.312C96.9516 167.232 96.4236 165.648 95.3676 164.56C94.3116 163.44 92.8716 162.88 91.0476 162.88C89.1916 162.88 87.7196 163.44 86.6316 164.56C85.5756 165.648 85.0476 167.232 85.0476 169.312V184H78.3276V157.408H85.0476V160.624C85.9116 159.504 87.0156 158.624 88.3596 157.984C89.7356 157.344 91.2396 157.024 92.8716 157.024C94.9516 157.024 96.8076 157.472 98.4396 158.368C100.072 159.232 101.336 160.48 102.232 162.112C103.096 160.576 104.344 159.344 105.976 158.416C107.64 157.488 109.432 157.024 111.352 157.024ZM153.345 170.128C153.345 171.088 153.281 171.952 153.153 172.72H133.713C133.873 174.64 134.545 176.144 135.729 177.232C136.913 178.32 138.369 178.864 140.097 178.864C142.593 178.864 144.369 177.792 145.425 175.648H152.673C151.905 178.208 150.433 180.32 148.257 181.984C146.081 183.616 143.409 184.432 140.241 184.432C137.681 184.432 135.377 183.872 133.329 182.752C131.313 181.6 129.729 179.984 128.577 177.904C127.457 175.824 126.896 173.424 126.896 170.704C126.896 167.952 127.457 165.536 128.577 163.456C129.697 161.376 131.265 159.776 133.281 158.656C135.297 157.536 137.617 156.976 140.241 156.976C142.769 156.976 145.025 157.52 147.009 158.608C149.025 159.696 150.577 161.248 151.665 163.264C152.785 165.248 153.345 167.536 153.345 170.128ZM146.385 168.208C146.353 166.48 145.729 165.104 144.513 164.08C143.297 163.024 141.809 162.496 140.049 162.496C138.385 162.496 136.977 163.008 135.825 164.032C134.705 165.024 134.017 166.416 133.761 168.208H146.385ZM186.906 184H180.186L164.97 161.008V184H158.25V150.448H164.97L180.186 173.488V150.448H186.906V184ZM218.266 170.128C218.266 171.088 218.202 171.952 218.074 172.72H198.634C198.794 174.64 199.466 176.144 200.65 177.232C201.834 178.32 203.29 178.864 205.018 178.864C207.514 178.864 209.29 177.792 210.346 175.648H217.594C216.826 178.208 215.354 180.32 213.178 181.984C211.002 183.616 208.33 184.432 205.162 184.432C202.602 184.432 200.298 183.872 198.25 182.752C196.234 181.6 194.65 179.984 193.498 177.904C192.378 175.824 191.818 173.424 191.818 170.704C191.818 167.952 192.378 165.536 193.498 163.456C194.618 161.376 196.186 159.776 198.202 158.656C200.218 157.536 202.538 156.976 205.162 156.976C207.69 156.976 209.946 157.52 211.93 158.608C213.946 159.696 215.498 161.248 216.586 163.264C217.706 165.248 218.266 167.536 218.266 170.128ZM211.306 168.208C211.274 166.48 210.65 165.104 209.434 164.08C208.218 163.024 206.73 162.496 204.97 162.496C203.306 162.496 201.898 163.008 200.746 164.032C199.626 165.024 198.938 166.416 198.682 168.208H211.306ZM233.347 184.432C231.171 184.432 229.219 184.048 227.491 183.28C225.763 182.48 224.387 181.408 223.363 180.064C222.371 178.72 221.827 177.232 221.731 175.6H228.499C228.627 176.624 229.123 177.472 229.987 178.144C230.883 178.816 231.987 179.152 233.299 179.152C234.579 179.152 235.571 178.896 236.275 178.384C237.011 177.872 237.379 177.216 237.379 176.416C237.379 175.552 236.931 174.912 236.035 174.496C235.171 174.048 233.779 173.568 231.859 173.056C229.875 172.576 228.243 172.08 226.963 171.568C225.715 171.056 224.627 170.272 223.699 169.216C222.803 168.16 222.355 166.736 222.355 164.944C222.355 163.472 222.771 162.128 223.603 160.912C224.467 159.696 225.683 158.736 227.251 158.032C228.851 157.328 230.723 156.976 232.867 156.976C236.035 156.976 238.563 157.776 240.451 159.376C242.339 160.944 243.379 163.072 243.571 165.76H237.139C237.043 164.704 236.595 163.872 235.795 163.264C235.027 162.624 233.987 162.304 232.675 162.304C231.459 162.304 230.515 162.528 229.843 162.976C229.203 163.424 228.883 164.048 228.883 164.848C228.883 165.744 229.331 166.432 230.227 166.912C231.123 167.36 232.515 167.824 234.403 168.304C236.323 168.784 237.907 169.28 239.155 169.792C240.403 170.304 241.475 171.104 242.371 172.192C243.299 173.248 243.779 174.656 243.811 176.416C243.811 177.952 243.379 179.328 242.515 180.544C241.683 181.76 240.467 182.72 238.867 183.424C237.299 184.096 235.459 184.432 233.347 184.432ZM257.152 162.928V175.792C257.152 176.688 257.36 177.344 257.776 177.76C258.224 178.144 258.96 178.336 259.984 178.336H263.104V184H258.88C253.216 184 250.384 181.248 250.384 175.744V162.928H247.216V157.408H250.384V150.832H257.152V157.408H263.104V162.928H257.152Z" fill="white"/>
</svg>
